<svg width="9" height="6" viewBox="0 0 9 6" fill="none" id="chevron" xmlns="http://www.w3.org/2000/svg">
    <path d="M8.93375 1.14287C8.93375 1.07144 8.89803 0.99108 8.84446 0.937509L8.39803 0.49108C8.34446 0.437509 8.2641 0.401794 8.19268 0.401794C8.12125 0.401794 8.04089 0.437509 7.98732 0.49108L4.47839 4.00001L0.969462 0.49108C0.91589 0.437509 0.835533 0.401794 0.764105 0.401794C0.683748 0.401794 0.612319 0.437509 0.558748 0.49108L0.112319 0.937509C0.0587475 0.99108 0.0230331 1.07144 0.0230331 1.14287C0.0230331 1.21429 0.0587475 1.29465 0.112319 1.34822L4.27303 5.50894C4.3266 5.56251 4.40696 5.59822 4.47839 5.59822C4.54982 5.59822 4.63018 5.56251 4.68375 5.50894L8.84446 1.34822C8.89803 1.29465 8.93375 1.21429 8.93375 1.14287Z" fill="#000000"/>
</svg>
